<svg xmlns="http://www.w3.org/2000/svg" viewBox="0 0 540.44 109.2">
    <path class="i-letter" d="M0,107.1V2.1H12.6v105Z"/>
    <path class="g-letter" d="M73.2,109.2a42.47,42.47,0,0,1-20.63-4.87A34.15,34.15,0,0,1,38.62,90q-5-9.45-5-23.4v-24q0-20.85,11.1-31.72T74.55,0q18.6,0,28.35,10.2t9.75,27.3v.75H100.2v-1a31.52,31.52,0,0,0-2.7-13.35,20.58,20.58,0,0,0-8.4-9.23q-5.7-3.36-14.55-3.37-13.35,0-20.85,8.17T46.2,42.3V66.9q0,14.7,7.5,22.87T74.7,98q13.2,0,19.42-7.5t6.23-20V68H68.55V57.15h44.1V107.1h-11.4V95.7h-2.1a26.83,26.83,0,0,1-4.65,6.45,21.66,21.66,0,0,1-8.1,5.1A37.52,37.52,0,0,1,73.2,109.2Z"/>
    <path class="n-letter" d="M135.6,107.1V2.1h24.45l36.6,97.05h1.95V2.1h12.45v105H186.6L150.15,9.9h-2.1v97.2Z"/>
    <path class="a-letter" d="M226.94,107.1l32.4-105h22.2l32.4,105H300.89l-8.1-26.55h-44.7L240,107.1Zm24.3-37.95h38.25l-18-59.4h-2.1Z"/>
    <path class="c-letter" d="M366.14,109.2q-18.75,0-29.85-10.87T325.19,66.6v-24q0-20.85,11.1-31.72T366.14,0q18.6,0,28.58,10.35t10,28.35v.75H392.24v-1.2q0-11.85-6.37-19.42t-19.73-7.58q-13.35,0-20.85,8.17t-7.5,22.88V66.9q0,14.7,7.5,22.87T366.14,98q13.35,0,19.73-7.57T392.24,71v-2.4h12.45v2q0,18-10,28.35T366.14,109.2Z"/>
    <path class="i-letter" d="M424.49,107.1V2.1h12.6v105Z"/>
    <path class="o-letter" d="M499.19,109.2q-18.75,0-29.92-10.87T458.09,66.6v-24q0-20.85,11.18-31.72T499.19,0q18.9,0,30.08,10.88T540.44,42.6v24q0,20.85-11.17,31.73T499.19,109.2Zm0-11.25q13.65,0,21.15-8.18t7.5-22.72V42.15q0-14.55-7.5-22.73t-21.15-8.17q-13.5,0-21,8.17t-7.5,22.73v24.9q0,14.55,7.5,22.72T499.19,98Z"/>
</svg>